<!--?xml version="1.0" standalone="no"?-->
              <svg id="sw-js-blob-svg" viewBox="0 0 100 100" xmlns="http://www.w3.org/2000/svg" version="1.1">
                    <defs> 
                        <linearGradient id="sw-gradient" x1="0" x2="1" y1="1" y2="0">
                            <stop id="stop1" stop-color="rgba(248, 117, 55, 1)" offset="0%"></stop>
                            <stop id="stop2" stop-color="rgba(251, 168, 31, 1)" offset="100%"></stop>
                        </linearGradient>
                    </defs>
                <path fill="url(#sw-gradient)" d="M17.6,-19.4C25.7,-14.1,37.2,-11.4,41.7,-4.6C46.2,2.2,43.7,13,37.2,19.1C30.8,25.2,20.5,26.6,12.1,26.9C3.6,27.3,-2.9,26.6,-11.1,25.7C-19.4,24.9,-29.3,23.8,-32.7,18.6C-36,13.4,-32.8,4.1,-30.9,-5.2C-29,-14.6,-28.5,-23.9,-23.5,-29.8C-18.6,-35.6,-9.3,-38,-2.3,-35.2C4.7,-32.5,9.4,-24.7,17.6,-19.4Z" width="100%" height="100%" transform="translate(50 50)" stroke-width="0" style="transition: all 0.3s ease 0s;"></path>
              </svg>