<svg id="visual" viewBox="0 0 900 600" xmlns="http://www.w3.org/2000/svg" xmlns:xlink="http://www.w3.org/1999/xlink" version="1.1"><rect x="0" y="0" preserveAspectRatio="none" fill="#232225"></rect><path d="M0 501L13.7 496.5C27.3 492 54.7 483 82 479.2C109.3 475.3 136.7 476.7 163.8 481.7C191 486.7 218 495.3 245.2 489.5C272.3 483.7 299.7 463.3 327 461.7C354.3 460 381.7 477 409 483C436.3 489 463.7 484 491 476.7C518.3 469.3 545.7 459.7 573 463.8C600.3 468 627.7 486 654.8 487.8C682 489.7 709 475.3 736.2 464.3C763.3 453.3 790.7 445.7 818 456C845.3 466.3 872.7 494.7 886.3 508.8L900 523L900 601L886.3 601C872.7 601 845.3 601 818 601C790.7 601 763.3 601 736.2 601C709 601 682 601 654.8 601C627.7 601 600.3 601 573 601C545.7 601 518.3 601 491 601C463.7 601 436.3 601 409 601C381.7 601 354.3 601 327 601C299.7 601 272.3 601 245.2 601C218 601 191 601 163.8 601C136.7 601 109.3 601 82 601C54.7 601 27.3 601 13.7 601L0 601Z" fill="#e93d82"></path><path d="M0 530L13.7 520.7C27.3 511.3 54.7 492.7 82 490.3C109.3 488 136.7 502 163.8 498.8C191 495.7 218 475.3 245.2 469.8C272.3 464.3 299.7 473.7 327 479.3C354.3 485 381.7 487 409 484.2C436.3 481.3 463.7 473.7 491 471.2C518.3 468.7 545.7 471.3 573 482.7C600.3 494 627.7 514 654.8 515.8C682 517.7 709 501.3 736.2 499.7C763.3 498 790.7 511 818 515.5C845.3 520 872.7 516 886.3 514L900 512L900 601L886.3 601C872.7 601 845.3 601 818 601C790.7 601 763.3 601 736.2 601C709 601 682 601 654.8 601C627.7 601 600.3 601 573 601C545.7 601 518.3 601 491 601C463.7 601 436.3 601 409 601C381.7 601 354.3 601 327 601C299.7 601 272.3 601 245.2 601C218 601 191 601 163.8 601C136.7 601 109.3 601 82 601C54.7 601 27.3 601 13.7 601L0 601Z" fill="#f7496d"></path><path d="M0 471L13.7 477.7C27.3 484.3 54.7 497.7 82 510.7C109.3 523.7 136.7 536.3 163.8 535.2C191 534 218 519 245.2 509.8C272.3 500.7 299.7 497.3 327 494.3C354.3 491.3 381.7 488.7 409 498.7C436.3 508.7 463.7 531.3 491 542C518.3 552.7 545.7 551.3 573 545.7C600.3 540 627.7 530 654.8 519C682 508 709 496 736.2 497.8C763.3 499.7 790.7 515.3 818 518C845.3 520.7 872.7 510.3 886.3 505.2L900 500L900 601L886.3 601C872.7 601 845.3 601 818 601C790.7 601 763.3 601 736.2 601C709 601 682 601 654.8 601C627.7 601 600.3 601 573 601C545.7 601 518.3 601 491 601C463.7 601 436.3 601 409 601C381.7 601 354.3 601 327 601C299.7 601 272.3 601 245.2 601C218 601 191 601 163.8 601C136.7 601 109.3 601 82 601C54.7 601 27.3 601 13.7 601L0 601Z" fill="#fe5b58"></path><path d="M0 528L13.7 524.3C27.3 520.7 54.7 513.3 82 510.5C109.3 507.7 136.7 509.3 163.8 509.2C191 509 218 507 245.2 513.2C272.3 519.3 299.7 533.7 327 541.2C354.3 548.7 381.7 549.3 409 552.8C436.3 556.3 463.7 562.7 491 564C518.3 565.3 545.7 561.7 573 552.2C600.3 542.7 627.7 527.3 654.8 518.5C682 509.7 709 507.3 736.2 510.8C763.3 514.3 790.7 523.7 818 533.2C845.3 542.7 872.7 552.3 886.3 557.2L900 562L900 601L886.3 601C872.7 601 845.3 601 818 601C790.7 601 763.3 601 736.2 601C709 601 682 601 654.8 601C627.7 601 600.3 601 573 601C545.7 601 518.3 601 491 601C463.7 601 436.3 601 409 601C381.7 601 354.3 601 327 601C299.7 601 272.3 601 245.2 601C218 601 191 601 163.8 601C136.7 601 109.3 601 82 601C54.7 601 27.3 601 13.7 601L0 601Z" fill="#ff7143"></path><path d="M0 543L13.7 541.2C27.3 539.3 54.7 535.7 82 538.8C109.3 542 136.7 552 163.8 560.3C191 568.7 218 575.3 245.2 570.7C272.3 566 299.7 550 327 543C354.3 536 381.7 538 409 542.7C436.3 547.3 463.7 554.7 491 554.7C518.3 554.7 545.7 547.3 573 551.3C600.3 555.3 627.7 570.7 654.8 578.2C682 585.7 709 585.3 736.2 581.3C763.3 577.3 790.7 569.7 818 562.5C845.3 555.3 872.7 548.7 886.3 545.3L900 542L900 601L886.3 601C872.7 601 845.3 601 818 601C790.7 601 763.3 601 736.2 601C709 601 682 601 654.8 601C627.7 601 600.3 601 573 601C545.7 601 518.3 601 491 601C463.7 601 436.3 601 409 601C381.7 601 354.3 601 327 601C299.7 601 272.3 601 245.2 601C218 601 191 601 163.8 601C136.7 601 109.3 601 82 601C54.7 601 27.3 601 13.7 601L0 601Z" fill="#ff8a2b"></path><path d="M0 571L13.7 575.5C27.3 580 54.7 589 82 586C109.3 583 136.7 568 163.8 560.7C191 553.3 218 553.7 245.2 554.7C272.3 555.7 299.7 557.3 327 563.3C354.3 569.3 381.7 579.7 409 583.5C436.3 587.3 463.7 584.7 491 583.3C518.3 582 545.7 582 573 580.2C600.3 578.3 627.7 574.7 654.8 572.5C682 570.3 709 569.7 736.2 573.5C763.3 577.3 790.7 585.7 818 585.7C845.3 585.7 872.7 577.3 886.3 573.2L900 569L900 601L886.3 601C872.7 601 845.3 601 818 601C790.7 601 763.3 601 736.2 601C709 601 682 601 654.8 601C627.7 601 600.3 601 573 601C545.7 601 518.3 601 491 601C463.7 601 436.3 601 409 601C381.7 601 354.3 601 327 601C299.7 601 272.3 601 245.2 601C218 601 191 601 163.8 601C136.7 601 109.3 601 82 601C54.7 601 27.3 601 13.7 601L0 601Z" fill="#ffa500"></path></svg>